<svg width="512" height="512" viewBox="0 0 512 512" fill="none" xmlns="http://www.w3.org/2000/svg">
<g clip-path="url(#clip0_27_2)">
<path d="M483.743 512C499.347 512 511.998 499.347 511.998 483.743V28.2574C511.998 12.6477 499.345 -2.05566e-06 483.743 -2.05566e-06H28.2593C12.6496 -2.05566e-06 0.0019163 12.6496 0.0019163 28.2574V483.741C0.0019163 499.347 12.6496 511.998 28.2593 511.998L483.743 512Z" fill="#485A96"/>
<path d="M353.271 512V313.726H419.823L429.787 236.455H353.269V187.12C353.269 164.749 359.481 149.503 391.564 149.503L432.48 149.484V80.3734C425.403 79.4334 401.113 77.329 372.858 77.329C313.862 77.329 273.473 113.338 273.473 179.47V236.455H206.751V313.726H273.473V511.998L353.271 512Z" fill="white"/>
</g>
<defs>
<clipPath id="clip0_27_2">
<rect width="512" height="512" fill="white"/>
</clipPath>
</defs>
</svg>
