<svg width="56" height="56" viewBox="0 0 56 56" fill="none" xmlns="http://www.w3.org/2000/svg">
<rect width="56" height="56" rx="8" fill="#FF6853"/>
<path d="M28 22.8752C27.327 22.8733 26.6602 23.0045 26.038 23.2612C25.4159 23.5179 24.8506 23.8951 24.3748 24.3711C23.899 24.8471 23.5219 25.4125 23.2654 26.0347C23.0089 26.6569 22.8779 27.3238 22.88 27.9968C22.8781 28.6696 23.0092 29.3362 23.2659 29.9581C23.5225 30.5801 23.8996 31.1452 24.3755 31.6209C24.8513 32.0965 25.4165 32.4735 26.0385 32.7299C26.6606 32.9864 27.3272 33.1173 28 33.1152C28.6727 33.1171 29.3391 32.986 29.961 32.7294C30.5828 32.4729 31.1478 32.0959 31.6235 31.6203C32.0991 31.1446 32.4761 30.5796 32.7326 29.9578C32.9892 29.3359 33.1203 28.6695 33.1184 27.9968C33.1207 27.3238 32.9899 26.6571 32.7336 26.0348C32.4772 25.4126 32.1003 24.8472 31.6246 24.3712C31.1489 23.8952 30.5838 23.518 29.9617 23.2612C29.3396 23.0045 28.6729 22.8733 28 22.8752V22.8752ZM28 31.2752C27.1301 31.2752 26.2958 30.9296 25.6807 30.3145C25.0656 29.6994 24.72 28.8651 24.72 27.9952C24.72 27.1253 25.0656 26.291 25.6807 25.6759C26.2958 25.0608 27.1301 24.7152 28 24.7152C28.8699 24.7152 29.7042 25.0608 30.3193 25.6759C30.9344 26.291 31.28 27.1253 31.28 27.9952C31.28 28.8651 30.9344 29.6994 30.3193 30.3145C29.7042 30.9296 28.8699 31.2752 28 31.2752ZM36 20C35.5008 19.5008 34.5872 19.6032 33.9632 20.2272C33.3392 20.8528 33.2384 21.7616 33.7376 22.2624C34.2368 22.7632 35.1488 22.6624 35.7744 22.0368C36.3984 21.4128 36.4992 20.4992 36 20V20ZM20.2272 33.9664C19.6016 34.5904 19.5008 35.5008 20 36C20.4992 36.4992 21.4112 36.4 22.0368 35.7744C22.6624 35.1488 22.7632 34.2368 22.264 33.7376C21.7648 33.2384 20.8512 33.3408 20.2272 33.9664V33.9664ZM20 20C19.5008 20.4992 19.6016 21.4128 20.2256 22.0368C20.8512 22.6624 21.7632 22.7616 22.2624 22.2624C22.7616 21.7632 22.6608 20.8496 22.0352 20.2256C21.4128 19.6032 20.4992 19.5008 20 20ZM33.9632 35.7712C34.5872 36.3968 35.4992 36.4992 36 36C36.5008 35.5008 36.3984 34.5872 35.7728 33.9616C35.1472 33.336 34.2368 33.2368 33.736 33.736C33.2352 34.2352 33.3392 35.1472 33.9632 35.7712ZM28 19.9968C28.7056 19.9968 29.28 19.2816 29.28 18.3968C29.2784 17.512 28.7056 16.8 28 16.8C27.2928 16.8 26.7184 17.512 26.7184 18.3968C26.7184 19.2816 27.2912 19.9968 28 19.9968ZM28 39.2C28.7056 39.2 29.28 38.4848 29.28 37.6C29.28 36.7152 28.7072 36.0032 28.0016 36.0032C27.2944 36.0032 26.72 36.7152 26.72 37.6C26.7184 38.4848 27.2912 39.2 28 39.2V39.2ZM20 28C20 27.2944 19.28 26.72 18.3952 26.72C17.5104 26.72 16.8 27.2944 16.8 28C16.8 28.7072 17.5104 29.28 18.3952 29.28C19.28 29.28 20 28.7072 20 28ZM39.2 28C39.2 27.2944 38.4832 26.72 37.5984 26.72C36.7136 26.72 36 27.2944 36 28C36 28.7072 36.7136 29.28 37.5984 29.28C38.4832 29.28 39.2 28.7072 39.2 28Z" fill="white"/>
</svg>
