<svg width="22.5" height="22.5" viewBox="0 0 22 22" fill="none" xmlns="http://www.w3.org/2000/svg">
<path d="M11 5.96672C10.339 5.96484 9.68411 6.0937 9.07306 6.34586C8.46202 6.59801 7.90688 6.96844 7.43956 7.43594C6.97218 7.90344 6.60193 8.4587 6.34996 9.06981C6.09799 9.68091 5.96937 10.3358 5.97142 10.9969C5.96955 11.6576 6.09835 12.3123 6.35044 12.9232C6.60247 13.5341 6.97285 14.089 7.44017 14.5562C7.90755 15.0234 8.46262 15.3936 9.07355 15.6454C9.68447 15.8973 10.3392 16.0259 11 16.0239C11.6607 16.0257 12.3152 15.897 12.926 15.645C13.5367 15.3931 14.0916 15.0228 14.5588 14.5557C15.0259 14.0885 15.3962 13.5336 15.6482 12.9228C15.9001 12.3121 16.0289 11.6575 16.027 10.9969C16.0293 10.3359 15.9009 9.68103 15.6491 9.06993C15.3973 8.45882 15.0271 7.90356 14.5599 7.436C14.0927 6.9685 13.5376 6.59801 12.9267 6.34586C12.3157 6.0937 11.661 5.96484 11 5.96672ZM11 14.2167C10.1456 14.2167 9.32624 13.8773 8.72209 13.2732C8.118 12.669 7.77857 11.8497 7.77857 10.9953C7.77857 10.1409 8.118 9.32154 8.72209 8.71738C9.32624 8.11323 10.1456 7.77386 11 7.77386C11.8544 7.77386 12.6738 8.11323 13.2779 8.71738C13.8821 9.32154 14.2214 10.1409 14.2214 10.9953C14.2214 11.8497 13.8821 12.669 13.2779 13.2732C12.6738 13.8773 11.8544 14.2167 11 14.2167ZM18.8571 3.14286C18.3669 2.65257 17.4696 2.75314 16.8567 3.366C16.2439 3.98043 16.1449 4.873 16.6351 5.36485C17.1254 5.85672 18.0211 5.75772 18.6356 5.14328C19.2484 4.53043 19.3474 3.63314 18.8571 3.14286ZM3.366 16.8599C2.75157 17.4727 2.65257 18.3669 3.14286 18.8571C3.63314 19.3474 4.52886 19.25 5.14329 18.6356C5.75771 18.0211 5.85671 17.1254 5.36643 16.6351C4.87614 16.1449 3.97886 16.2454 3.366 16.8599ZM3.14286 3.14286C2.65257 3.63314 2.75157 4.53043 3.36443 5.14328C3.97886 5.75772 4.87457 5.85515 5.36486 5.36485C5.85514 4.87457 5.75614 3.97728 5.14172 3.36443C4.53043 2.75314 3.63314 2.65257 3.14286 3.14286ZM16.8567 18.6324C17.4696 19.2469 18.3653 19.3474 18.8571 18.8571C19.349 18.3669 19.2484 17.4696 18.634 16.8551C18.0196 16.2407 17.1254 16.1433 16.6336 16.6336C16.1417 17.1239 16.2439 18.0196 16.8567 18.6324ZM11 3.13971C11.693 3.13971 12.2571 2.43728 12.2571 1.56828C12.2556 0.699284 11.693 0 11 0C10.3054 0 9.74128 0.699284 9.74128 1.56828C9.74128 2.43728 10.3039 3.13971 11 3.13971ZM11 22C11.693 22 12.2571 21.2976 12.2571 20.4286C12.2571 19.5596 11.6946 18.8603 11.0016 18.8603C10.307 18.8603 9.74285 19.5596 9.74285 20.4286C9.74128 21.2976 10.3039 22 11 22ZM3.14286 11C3.14286 10.307 2.43572 9.74286 1.56672 9.74286C0.697715 9.74286 0 10.307 0 11C0 11.6946 0.697715 12.2571 1.56672 12.2571C2.43572 12.2571 3.14286 11.6946 3.14286 11ZM22 11C22 10.307 21.296 9.74286 20.427 9.74286C19.558 9.74286 18.8571 10.307 18.8571 11C18.8571 11.6946 19.558 12.2571 20.427 12.2571C21.296 12.2571 22 11.6946 22 11Z" fill="#FFF"/>
</svg>
